<svg width="16" height="16" xmlns="http://www.w3.org/2000/svg">
    <g fill="none" fill-rule="evenodd">
        <path d="M-539.5-296.5h2999v999h-2999z" stroke="#979797"/>
        <g fill="currentColor">
            <path d="M15.923.618A1.006 1.006 0 0 0 15 0H9a1 1 0 0 0 0 2h3.586L6.293 8.293a.999.999 0 1 0 1.414 1.414L14 3.414V7a1 1 0 1 0 2 0V1a.995.995 0 0 0-.077-.382"/>
            <path d="M10 10v3c0 .551-.449 1-1 1H3c-.551 0-1-.449-1-1V7c0-.551.449-1 1-1h3V4H3C1.346 4 0 5.346 0 7v6c0 1.654 1.346 3 3 3h6c1.654 0 3-1.346 3-3v-3h-2z"/>
        </g>
    </g>
</svg>
