<svg height="28" viewBox="0 0 28 28" width="28" xmlns="http://www.w3.org/2000/svg" xmlns:xlink="http://www.w3.org/1999/xlink"><clipPath id="a"><path d="m2.006 18a2.009 2.009 0 0 1 -2.006-2.009v-7.983a2 2 0 0 1 2-2.008h2v2h-2s0 7.991 0 7.991 9.994.009 9.994.009.006-7.992.006-7.992-2-.008-2-.008v-2h2a2.006 2.006 0 0 1 2 2.008v7.983a2.007 2.007 0 0 1 -2.006 2.009zm3.994-5v-9.509l-1.216 1.209a1.052 1.052 0 0 1 -1.478 0 1.03 1.03 0 0 1 0-1.465l2.955-2.935a1.052 1.052 0 0 1 1.478 0l2.955 2.929a1.029 1.029 0 0 1 0 1.465 1.052 1.052 0 0 1 -1.478 0l-1.216-1.202v9.508a1 1 0 1 1 -2 0z" transform="translate(5 3)"/></clipPath><path d="m2.006 18a2.009 2.009 0 0 1 -2.006-2.009v-7.983a2 2 0 0 1 2-2.008h2v2h-2s0 7.991 0 7.991 9.994.009 9.994.009.006-7.992.006-7.992-2-.008-2-.008v-2h2a2.006 2.006 0 0 1 2 2.008v7.983a2.007 2.007 0 0 1 -2.006 2.009zm3.994-5v-9.509l-1.216 1.209a1.052 1.052 0 0 1 -1.478 0 1.03 1.03 0 0 1 0-1.465l2.955-2.935a1.052 1.052 0 0 1 1.478 0l2.955 2.929a1.029 1.029 0 0 1 0 1.465 1.052 1.052 0 0 1 -1.478 0l-1.216-1.202v9.508a1 1 0 1 1 -2 0z" fill="#42526e" transform="translate(5 3)"/><g clip-path="url(#a)"><path d="m0 24h24v-24h-24z" fill="#a5adba"/></g></svg>
