<svg width="16" height="16" xmlns="http://www.w3.org/2000/svg">
    <g fill="none" fill-rule="evenodd">
        <path d="M-539.5-584.5h2999v999h-2999z" stroke="#979797"/>
        <g fill="currentColor">
            <path d="M5.999 11H4c-2.206 0-4-1.794-4-4a4.026 4.026 0 0 1 3.047-3.885 5.493 5.493 0 0 1 9.226-1.074A4.51 4.51 0 0 1 16 6.475c0 2.481-2.018 4.5-4.498 4.5L9.938 11l-.032-2 1.58-.025A2.505 2.505 0 0 0 14 6.475a2.503 2.503 0 0 0-2.336-2.496.996.996 0 0 1-.765-.437A3.497 3.497 0 0 0 7.999 2a3.509 3.509 0 0 0-3.3 2.343 1 1 0 0 1-.863.663A2.01 2.01 0 0 0 2 7c0 1.103.897 2 2 2h1.999v2z"/>
            <path d="M10.706 12.293a.999.999 0 0 0-1.414 0l-.293.293V6a1 1 0 0 0-2 0v6.586l-.293-.293a.999.999 0 1 0-1.414 1.414l2 2a.997.997 0 0 0 1.414 0l2-2a.999.999 0 0 0 0-1.414"/>
        </g>
    </g>
</svg>
