<svg id="Layer_1" data-name="Layer 1" xmlns="http://www.w3.org/2000/svg" height="20" width="18"  viewBox="0 0 20 18"><defs><style>.cls-1{fill-rule:evenodd;}</style></defs><title>action-download</title><path class="cls-1" d="M11.53,20.88A.94.94,0,0,0,12,21h0a1.07,1.07,0,0,0,.78-.32l1.92-1.93a1,1,0,0,0,0-1.41,1,1,0,0,0-1.4,0l-.31.31V10a1,1,0,1,0-2,0v7.6l-.31-.32a1,1,0,0,0-1.4,0,1,1,0,0,0,0,1.41l2,2a1.31,1.31,0,0,0,.28.2M16.84,5.42a5.12,5.12,0,0,0-.78.06A6.27,6.27,0,0,0,11,3,6.07,6.07,0,0,0,5.14,7.59,4.1,4.1,0,0,0,2,11.67,4.32,4.32,0,0,0,6.05,16h4V14h-4A2.33,2.33,0,0,1,4,11.67,2,2,0,0,1,6,9.51h.28A.63.63,0,0,0,6.9,9l0-.34A4.15,4.15,0,0,1,11,5a4.28,4.28,0,0,1,3.71,2.12l.15.27a.68.68,0,0,0,.88.25l.17-.07a2.78,2.78,0,0,1,1-.15h0A3.09,3.09,0,0,1,20,10.5,3.43,3.43,0,0,1,16.9,14H14v2H16.9A5.47,5.47,0,0,0,22,10.5a5.1,5.1,0,0,0-5.16-5.08" transform="translate(-2 -3)"/></svg>
