<svg width="32" height="32" xmlns="http://www.w3.org/2000/svg">
    <g fill="none" fill-rule="evenodd">
        <rect fill="#FF5E00" width="32" height="32" rx="4"/>
        <g fill="#FFF">
            <path d="m12.184 22 3.136-10.432h-2.4l-1.232 4.864c-.15.576-.288 1.133-.416 1.672a84.636 84.636 0 0 1-.416 1.672h-.064a36.709 36.709 0 0 1-.424-1.672 36.709 36.709 0 0 0-.424-1.672l-1.248-4.864H6.2L9.352 22h2.832zm8.208.192c1.344 0 2.365-.4 3.064-1.2.699-.8 1.048-2.075 1.048-3.824v-5.6h-2.272v5.84c0 1.024-.16 1.739-.48 2.144-.32.405-.773.608-1.36.608-.587 0-1.035-.203-1.344-.608-.31-.405-.464-1.12-.464-2.144v-5.84h-2.368v5.6c0 1.75.357 3.024 1.072 3.824.715.8 1.75 1.2 3.104 1.2z" fill-rule="nonzero"/>
            <path d="M17 8h7v2h-7z"/>
        </g>
    </g>
</svg>
