<svg id="rights" data-name="Rights" xmlns="http://www.w3.org/2000/svg" viewBox="0 0 20 20" width="20" height="20">
    <style>.cls-1{fill-rule:evenodd;}</style>
    <title>Rights</title>
    <path fill="#000" class="cls-1" d="M5,19a2,2,0,0,0,2,2H19a2,2,0,0,0,2-2V7a2,2,0,0,0-2-2V18a.94.94,0,0,1-1,1H5M15,3H5A2,2,0,0,0,3,5V15a2,2,0,0,0,2,2H15a2,2,0,0,0,2-2V5A2,2,0,0,0,15,3Zm0,12H5V5H15Zm-2-5H7a.94.94,0,0,0-1,1,.94.94,0,0,0,1,1h6a.94.94,0,0,0,1-1,.94.94,0,0,0-1-1M7,7h6a.94.94,0,0,1,1,1,.94.94,0,0,1-1,1H7A.94.94,0,0,1,6,8,.94.94,0,0,1,7,7" transform="translate(-3 -3)"/>
</svg>
