<svg id="Layer_1" data-name="Layer 1" xmlns="http://www.w3.org/2000/svg" viewBox="0 0 18 17"><defs><style>.cls-1{fill-rule:evenodd;}</style></defs><title>status-linked</title><path class="cls-1" d="M12.08,18.62l-.94.92A4.89,4.89,0,0,1,4.72,20a4.55,4.55,0,0,1-.35-6.82l2.9-2.85a4.75,4.75,0,0,1,6.62,0L15,11.43l-1.46,1.44-1.11-1.09a2.66,2.66,0,0,0-3.7,0l-2.9,2.85A2.54,2.54,0,0,0,6,18.44a2.75,2.75,0,0,0,3.6-.29l1-1a1,1,0,0,1,1.46,0,1,1,0,0,1,0,1.43" transform="translate(-3 -4)"/><path class="cls-1" d="M11.92,6.38l.94-.92A4.89,4.89,0,0,1,19.28,5a4.55,4.55,0,0,1,.35,6.82l-2.9,2.85a4.75,4.75,0,0,1-6.62,0L9,13.57l1.46-1.44,1.11,1.09a2.66,2.66,0,0,0,3.7,0l2.9-2.85A2.54,2.54,0,0,0,18,6.56a2.75,2.75,0,0,0-3.6.29l-1,1a1,1,0,0,1-1.46,0,1,1,0,0,1,0-1.43" transform="translate(-3 -4)"/></svg>